<svg id="mountain" xmlns="http://www.w3.org/2000/svg" viewBox="0 0 179.41 50.99"><defs><style>.cls-1{opacity:0.53;}.cls-2{fill:#fff;fill-rule:evenodd;}</style></defs><g class="cls-1"><path class="cls-2" d="M1293.39,239.39A5.62,5.62,0,0,1,1299,245h0a5.62,5.62,0,0,1-5.61,5.61H1125.2a5.63,5.63,0,0,1-5.61-5.61h0a5.63,5.63,0,0,1,5.61-5.61ZM1146.48,256.5a5.62,5.62,0,0,1,5.6,5.61h0a5.63,5.63,0,0,1-5.6,5.61h-.16a5.63,5.63,0,0,1-5.61-5.61h0a5.63,5.63,0,0,1,5.61-5.61Zm16.42,0a5.63,5.63,0,0,0-5.61,5.61h0a5.63,5.63,0,0,0,5.61,5.61h115.9a5.63,5.63,0,0,0,5.6-5.61h0a5.62,5.62,0,0,0-5.6-5.61h-5.31a3,3,0,0,1-2.94-2.95,2.76,2.76,0,0,1,2.94-2.94h-86.8a2.94,2.94,0,0,1,2.94,2.94,3,3,0,0,1-2.94,2.95Z" transform="translate(-1119.59 -216.73)"/><path class="cls-2" d="M1293.39,239.39H1125.2a5.63,5.63,0,0,0-5.61,5.61h0a5.4,5.4,0,0,0,.08.91h179.25a5.4,5.4,0,0,0,.08-.91h0A5.62,5.62,0,0,0,1293.39,239.39Z" transform="translate(-1119.59 -216.73)"/><path class="cls-2" d="M1293.39,239.39H1125.2a5.63,5.63,0,0,0-5.61,5.61h0a5.63,5.63,0,0,0,5.61,5.61h168.19A5.62,5.62,0,0,0,1299,245h0A5.62,5.62,0,0,0,1293.39,239.39Z" transform="translate(-1119.59 -216.73)"/><path class="cls-2" d="M1293.39,239.39H1125.2a5.63,5.63,0,0,0-5.61,5.61h0a5.4,5.4,0,0,0,.08.91h179.25a5.4,5.4,0,0,0,.08-.91h0A5.62,5.62,0,0,0,1293.39,239.39Z" transform="translate(-1119.59 -216.73)"/><path class="cls-2" d="M1202.82,240.39l0,0a12.1,12.1,0,0,1,14.82-10.3,18.66,18.66,0,0,1,35.87.23,12.13,12.13,0,0,1,14.55,6.26,8,8,0,0,1,12.61,4.08h-77.89Z" transform="translate(-1119.59 -216.73)"/><path class="cls-2" d="M1203.38,250.33l0,0a10.85,10.85,0,0,1,13.26-9.21,16.69,16.69,0,0,1,32.09.21,10.64,10.64,0,0,1,3.26-.5,10.84,10.84,0,0,1,9.75,6.1,7.11,7.11,0,0,1,11.28,3.65h-69.67Z" transform="translate(-1119.59 -216.73)"/><path class="cls-2" d="M1178.56,240.54l0,0a6.31,6.31,0,0,0-7.72-5.36,9.72,9.72,0,0,0-18.68.12,6.24,6.24,0,0,0-1.9-.29,6.31,6.31,0,0,0-5.67,3.55,4.08,4.08,0,0,0-2.58-.9,4.15,4.15,0,0,0-4,3h40.56Z" transform="translate(-1119.59 -216.73)"/></g></svg>