<svg id="mountain" xmlns="http://www.w3.org/2000/svg" viewBox="0 0 308.41 87.65"><defs><style>.cls-1{opacity:0.53;}.cls-2{fill:#fff;fill-rule:evenodd;}</style></defs><g class="cls-1"><path class="cls-2" d="M1574.24,386h289.12a9.67,9.67,0,0,1,9.64,9.65h0a9.67,9.67,0,0,1-9.64,9.64H1574.24a9.67,9.67,0,0,1-9.65-9.64h0a9.68,9.68,0,0,1,9.65-9.65Zm252.55,29.41h.26a9.67,9.67,0,0,1,9.64,9.64h0a9.67,9.67,0,0,1-9.64,9.65h-.26a9.67,9.67,0,0,1-9.64-9.65h0a9.67,9.67,0,0,1,9.64-9.64Zm-69.13,0a5.06,5.06,0,0,1,0-10.12H1608.44a4.75,4.75,0,0,1,5.06,5.06,5.08,5.08,0,0,1-5.06,5.06h-9.11a9.67,9.67,0,0,0-9.65,9.64h0a9.68,9.68,0,0,0,9.65,9.65h199.22a9.67,9.67,0,0,0,9.64-9.65h0a9.66,9.66,0,0,0-9.64-9.64Z" transform="translate(-1564.59 -347.07)"/><path class="cls-2" d="M1574.24,386h289.12a9.67,9.67,0,0,1,9.64,9.65h0a9.16,9.16,0,0,1-.13,1.57H1564.72a10.29,10.29,0,0,1-.13-1.57h0A9.68,9.68,0,0,1,1574.24,386Z" transform="translate(-1564.59 -347.07)"/><path class="cls-2" d="M1574.24,386h289.12a9.67,9.67,0,0,1,9.64,9.65h0a9.67,9.67,0,0,1-9.64,9.64H1574.24a9.67,9.67,0,0,1-9.65-9.64h0A9.68,9.68,0,0,1,1574.24,386Z" transform="translate(-1564.59 -347.07)"/><path class="cls-2" d="M1574.24,386h289.12a9.67,9.67,0,0,1,9.64,9.65h0a9.16,9.16,0,0,1-.13,1.57H1564.72a10.29,10.29,0,0,1-.13-1.57h0A9.68,9.68,0,0,1,1574.24,386Z" transform="translate(-1564.59 -347.07)"/><path class="cls-2" d="M1729.93,387.73l-.07.07a20.84,20.84,0,0,0-25.48-17.7,32.07,32.07,0,0,0-61.66.4,20.86,20.86,0,0,0-25,10.76,13.66,13.66,0,0,0-21.68,7h133.9Z" transform="translate(-1564.59 -347.07)"/><path class="cls-2" d="M1729,404.82l-.06.06a18.64,18.64,0,0,0-18.49-16.34,19.11,19.11,0,0,0-4.31.5,28.69,28.69,0,0,0-55.15.36,19,19,0,0,0-5.62-.86A18.65,18.65,0,0,0,1628.59,399a12.21,12.21,0,0,0-19.39,6.28H1729Z" transform="translate(-1564.59 -347.07)"/><path class="cls-2" d="M1771.64,388l0,0a10.81,10.81,0,0,1,13.26-9.21,16.7,16.7,0,0,1,32.11.2,11,11,0,0,1,3.26-.5,10.85,10.85,0,0,1,9.76,6.11,7.1,7.1,0,0,1,11.28,3.65h-69.71Z" transform="translate(-1564.59 -347.07)"/></g></svg>