<svg id="mountain" xmlns="http://www.w3.org/2000/svg" viewBox="0 0 1178 197.13"><defs><style>.cls-1{fill:#fff;opacity:0.61;}</style></defs><path class="cls-1" d="M1495.42,750.53c-9.71,2.32-16.8,9.71-16.8,18.47a16.23,16.23,0,0,0,.92,5.39h-53.21a17.21,17.21,0,0,0,1-5.78c0-11.26-11.06-20.39-24.71-20.39a29.28,29.28,0,0,0-7.7,1,26.14,26.14,0,0,0,.71-6c0-17.22-16.91-31.17-37.77-31.17-19.87,0-36.16,12.67-37.65,28.75l-.35.05q.23-3,.23-6.1c0-17.66-5.88-34.18-16.12-48.3a30.38,30.38,0,0,0-.74,4.4l-.4,0c.15-1.87.23-3.76.26-5.65-20.13-26.86-56.15-44.76-97.23-44.76-58.31,0-106.41,36.06-113.36,82.63-8.25-7.28-20-11.83-33-11.83s-25,4.62-33.25,12c-14.76-17.94-39.68-29.72-67.93-29.72-38.49,0-70.79,21.87-79.65,51.37a32.73,32.73,0,0,0-11.73-2.13c-12.92,0-23.78,7.22-27,17a52.55,52.55,0,0,0-25.22-6.26c-25,0-45.33,16.58-45.69,37.15h442c5.38,0,9.78,3.63,9.78,8.07s-15,8.06-9.78,8.06H1184c-10.25,0-18.63,6.92-18.63,15.37h0c0,8.45,8.38,15.36,18.63,15.36h672.49c10.24,0,18.62-6.91,18.62-15.36h0c0-8.45-8.38-15.37-18.62-15.37h-38.1c-5.38,0-9.78-3.63-9.78-8.06s16.23-8.07,9.78-8.07H1947c-3.38-15-19.33-26.38-38.51-26.38a47.36,47.36,0,0,0-9.32.92v-.92h-1.34c-5-17-23.6-29.63-45.75-29.63a56.69,56.69,0,0,0-11.55,1.18c-5-13.16-19.82-22.72-37.41-22.72a47.82,47.82,0,0,0-6.16.39c-13.93-35.28-54.12-60.79-101.54-60.79s-87.78,25.61-101.62,61c-1.85-.16-3.72-.24-5.62-.24-17,0-32.22,6.56-42,16.78a36.12,36.12,0,0,0-19-5.23c-17.2,0-31.19,11.29-31.69,25.38Z" transform="translate(-769 -640.5)"/></svg>