<svg xmlns="http://www.w3.org/2000/svg" xmlns:xlink="http://www.w3.org/1999/xlink" viewBox="0 0 506.17 348.95"><defs><style>.cls-1{fill:url(#linear-gradient);}</style><linearGradient id="linear-gradient" x1="84.73" y1="11.55" x2="419.16" y2="345.98" gradientUnits="userSpaceOnUse"><stop offset="0" stop-color="#9e258f"/><stop offset="1" stop-color="#ff6700"/></linearGradient></defs><g id="Layer_2" data-name="Layer 2"><g id="Layer_1-2" data-name="Layer 1"><path class="cls-1" d="M337.27,200H164.84V148.4H337.27ZM147.53,341.85V7.66a7.1,7.1,0,0,0-7.1-7.1H116a7.1,7.1,0,0,0-7.1,7.1V341.85A7.1,7.1,0,0,0,116,349h24.45A7.1,7.1,0,0,0,147.53,341.85ZM91.07,306.32v-260A6.06,6.06,0,0,0,85,40.29H58.49a6.06,6.06,0,0,0-6.06,6.07v260a6.06,6.06,0,0,0,6.06,6.06H85A6.06,6.06,0,0,0,91.07,306.32ZM35.52,199.67V149.58a3.23,3.23,0,0,0-3.22-3.23H3.23A3.23,3.23,0,0,0,0,149.58v50.09a3.22,3.22,0,0,0,3.23,3.23H32.3A3.22,3.22,0,0,0,35.52,199.67ZM361.91,348.56h24.46a7.08,7.08,0,0,0,7.09-7.09V7.1A7.09,7.09,0,0,0,386.37,0H361.91a7.09,7.09,0,0,0-7.09,7.1V341.47A7.08,7.08,0,0,0,361.91,348.56Zm57-31.32H445.4a6.06,6.06,0,0,0,6.06-6.07v-260a6.06,6.06,0,0,0-6.06-6.06H418.88a6.06,6.06,0,0,0-6.06,6.06v260A6.06,6.06,0,0,0,418.88,317.24Zm55-112.63h29.07a3.22,3.22,0,0,0,3.23-3.22v-50.1a3.23,3.23,0,0,0-3.23-3.23H473.87a3.23,3.23,0,0,0-3.22,3.23v50.1A3.22,3.22,0,0,0,473.87,204.61Z"/></g></g></svg>