<svg xmlns="http://www.w3.org/2000/svg" xmlns:xlink="http://www.w3.org/1999/xlink" viewBox="0 0 417.15 359.08"><defs><style>.cls-1{fill:url(#linear-gradient);}.cls-2{fill:url(#linear-gradient-2);}.cls-3{fill:url(#linear-gradient-3);}</style><linearGradient id="linear-gradient" x1="69.52" y1="60.52" x2="248.96" y2="239.96" gradientUnits="userSpaceOnUse"><stop offset="0" stop-color="#9e258f"/><stop offset="1" stop-color="#ff6700"/></linearGradient><linearGradient id="linear-gradient-2" x1="68.83" y1="-2.75" x2="349.28" y2="277.69" xlink:href="#linear-gradient"/><linearGradient id="linear-gradient-3" x1="38.61" y1="-19.07" x2="378.54" y2="320.86" xlink:href="#linear-gradient"/></defs><g id="Layer_2" data-name="Layer 2"><g id="Layer_1-2" data-name="Layer 1"><path class="cls-1" d="M62.54,214.18H53.83a6,6,0,1,0,0,12h8.71a6,6,0,1,0,0-12Zm0-19.36H53.83a6,6,0,1,0,0,12h8.71a6,6,0,1,0,0-12Zm0-19.35H53.83a6,6,0,0,0,0,12h8.71a6,6,0,1,0,0-12Zm0-19.35H53.83a6,6,0,1,0,0,12h8.71a6,6,0,1,0,0-12Zm0-19.36H53.83a6,6,0,1,0,0,12h8.71a6,6,0,1,0,0-12Zm0-19.35H53.83a6,6,0,0,0,0,12h8.71a6,6,0,1,0,0-12Zm0-19.36H53.83a6,6,0,0,0,0,12h8.71a6,6,0,1,0,0-12Zm0-19.35H53.83a6,6,0,0,0,0,12h8.71a6,6,0,1,0,0-12Zm52.84,135.48H80.54a6,6,0,0,0,0,12h34.84a6,6,0,0,0,0-12Zm0-19.36H80.54a6,6,0,0,0,0,12h34.84a6,6,0,0,0,0-12Zm0-19.35H80.54a6,6,0,1,0,0,12h34.84a6,6,0,1,0,0-12Zm0-19.35H80.54a6,6,0,0,0,0,12h34.84a6,6,0,0,0,0-12Zm0-19.36H80.54a6,6,0,0,0,0,12h34.84a6,6,0,0,0,0-12Zm0-19.35H80.54a6,6,0,1,0,0,12h34.84a6,6,0,0,0,0-12Zm0-19.36H80.54a6,6,0,0,0,0,12h34.84a6,6,0,0,0,0-12Zm0-19.35H80.54a6,6,0,0,0,0,12h34.84a6,6,0,0,0,0-12Zm117.91,33.91L190,134.6v9.65l43.32,22V155.45l-30.88-16,30.88-16Zm35.49-6.91-28.64,77h8.42l28.68-77Zm15.33,6.89V123.4l30.92,16-30.92,16v10.84l43.33-22.06V134.6Zm0,0V123.4l30.92,16-30.92,16v10.84l43.33-22.06V134.6Zm-15.33-6.89-28.64,77h8.42l28.68-77Zm-35.49,6.91L190,134.6v9.65l43.32,22V155.45l-30.88-16,30.88-16ZM115.38,78.7H80.54a6,6,0,0,0,0,12h34.84a6,6,0,0,0,0-12Zm0,19.35H80.54a6,6,0,0,0,0,12h34.84a6,6,0,0,0,0-12Zm0,19.36H80.54a6,6,0,1,0,0,12h34.84a6,6,0,0,0,0-12Zm0,19.35H80.54a6,6,0,0,0,0,12h34.84a6,6,0,0,0,0-12Zm0,19.36H80.54a6,6,0,0,0,0,12h34.84a6,6,0,0,0,0-12Zm0,19.35H80.54a6,6,0,1,0,0,12h34.84a6,6,0,1,0,0-12Zm0,19.35H80.54a6,6,0,0,0,0,12h34.84a6,6,0,0,0,0-12Zm0,19.36H80.54a6,6,0,0,0,0,12h34.84a6,6,0,0,0,0-12ZM62.54,78.7H53.83a6,6,0,0,0,0,12h8.71a6,6,0,1,0,0-12Zm0,19.35H53.83a6,6,0,0,0,0,12h8.71a6,6,0,1,0,0-12Zm0,19.36H53.83a6,6,0,0,0,0,12h8.71a6,6,0,1,0,0-12Zm0,19.35H53.83a6,6,0,1,0,0,12h8.71a6,6,0,1,0,0-12Zm0,19.36H53.83a6,6,0,1,0,0,12h8.71a6,6,0,1,0,0-12Zm0,19.35H53.83a6,6,0,0,0,0,12h8.71a6,6,0,1,0,0-12Zm0,19.35H53.83a6,6,0,1,0,0,12h8.71a6,6,0,1,0,0-12Zm0,19.36H53.83a6,6,0,1,0,0,12h8.71a6,6,0,1,0,0-12Zm0,0H53.83a6,6,0,1,0,0,12h8.71a6,6,0,1,0,0-12Zm0-19.36H53.83a6,6,0,1,0,0,12h8.71a6,6,0,1,0,0-12Zm0-19.35H53.83a6,6,0,0,0,0,12h8.71a6,6,0,1,0,0-12Zm0-19.35H53.83a6,6,0,1,0,0,12h8.71a6,6,0,1,0,0-12Zm0-19.36H53.83a6,6,0,1,0,0,12h8.71a6,6,0,1,0,0-12Zm0-19.35H53.83a6,6,0,0,0,0,12h8.71a6,6,0,1,0,0-12Zm0-19.36H53.83a6,6,0,0,0,0,12h8.71a6,6,0,1,0,0-12Zm0-19.35H53.83a6,6,0,0,0,0,12h8.71a6,6,0,1,0,0-12Zm52.84,135.48H80.54a6,6,0,0,0,0,12h34.84a6,6,0,0,0,0-12Zm0-19.36H80.54a6,6,0,0,0,0,12h34.84a6,6,0,0,0,0-12Zm0-19.35H80.54a6,6,0,1,0,0,12h34.84a6,6,0,1,0,0-12Zm0-19.35H80.54a6,6,0,0,0,0,12h34.84a6,6,0,0,0,0-12Zm0-19.36H80.54a6,6,0,0,0,0,12h34.84a6,6,0,0,0,0-12Zm0-19.35H80.54a6,6,0,1,0,0,12h34.84a6,6,0,0,0,0-12Zm0-19.36H80.54a6,6,0,0,0,0,12h34.84a6,6,0,0,0,0-12Zm0-19.35H80.54a6,6,0,0,0,0,12h34.84a6,6,0,0,0,0-12Zm117.91,33.91L190,134.6v9.65l43.32,22V155.45l-30.88-16,30.88-16Zm35.49-6.91-28.64,77h8.42l28.68-77Zm15.33,6.89V123.4l30.92,16-30.92,16v10.84l43.33-22.06V134.6Zm0,0V123.4l30.92,16-30.92,16v10.84l43.33-22.06V134.6Zm-15.33-6.89-28.64,77h8.42l28.68-77Zm-35.49,6.91L190,134.6v9.65l43.32,22V155.45l-30.88-16,30.88-16ZM115.38,78.7H80.54a6,6,0,0,0,0,12h34.84a6,6,0,0,0,0-12Zm0,19.35H80.54a6,6,0,0,0,0,12h34.84a6,6,0,0,0,0-12Zm0,19.36H80.54a6,6,0,1,0,0,12h34.84a6,6,0,0,0,0-12Zm0,19.35H80.54a6,6,0,0,0,0,12h34.84a6,6,0,0,0,0-12Zm0,19.36H80.54a6,6,0,0,0,0,12h34.84a6,6,0,0,0,0-12Zm0,19.35H80.54a6,6,0,1,0,0,12h34.84a6,6,0,1,0,0-12Zm0,19.35H80.54a6,6,0,0,0,0,12h34.84a6,6,0,0,0,0-12Zm0,19.36H80.54a6,6,0,0,0,0,12h34.84a6,6,0,0,0,0-12ZM62.54,78.7H53.83a6,6,0,0,0,0,12h8.71a6,6,0,1,0,0-12Zm0,19.35H53.83a6,6,0,0,0,0,12h8.71a6,6,0,1,0,0-12Zm0,19.36H53.83a6,6,0,0,0,0,12h8.71a6,6,0,1,0,0-12Zm0,19.35H53.83a6,6,0,1,0,0,12h8.71a6,6,0,1,0,0-12Zm0,19.36H53.83a6,6,0,1,0,0,12h8.71a6,6,0,1,0,0-12Zm0,19.35H53.83a6,6,0,0,0,0,12h8.71a6,6,0,1,0,0-12Zm0,19.35H53.83a6,6,0,1,0,0,12h8.71a6,6,0,1,0,0-12Zm0,19.36H53.83a6,6,0,1,0,0,12h8.71a6,6,0,1,0,0-12Zm0,0H53.83a6,6,0,1,0,0,12h8.71a6,6,0,1,0,0-12Zm0-19.36H53.83a6,6,0,1,0,0,12h8.71a6,6,0,1,0,0-12Zm0-19.35H53.83a6,6,0,0,0,0,12h8.71a6,6,0,1,0,0-12Zm0-19.35H53.83a6,6,0,1,0,0,12h8.71a6,6,0,1,0,0-12Zm0-19.36H53.83a6,6,0,1,0,0,12h8.71a6,6,0,1,0,0-12Zm0-19.35H53.83a6,6,0,0,0,0,12h8.71a6,6,0,1,0,0-12Zm0-19.36H53.83a6,6,0,0,0,0,12h8.71a6,6,0,1,0,0-12Zm0-19.35H53.83a6,6,0,0,0,0,12h8.71a6,6,0,1,0,0-12Zm52.84,135.48H80.54a6,6,0,0,0,0,12h34.84a6,6,0,0,0,0-12Zm0-19.36H80.54a6,6,0,0,0,0,12h34.84a6,6,0,0,0,0-12Zm0-19.35H80.54a6,6,0,1,0,0,12h34.84a6,6,0,1,0,0-12Zm0-19.35H80.54a6,6,0,0,0,0,12h34.84a6,6,0,0,0,0-12Zm0-19.36H80.54a6,6,0,0,0,0,12h34.84a6,6,0,0,0,0-12Zm0-19.35H80.54a6,6,0,1,0,0,12h34.84a6,6,0,0,0,0-12Zm0-19.36H80.54a6,6,0,0,0,0,12h34.84a6,6,0,0,0,0-12Zm0-19.35H80.54a6,6,0,0,0,0,12h34.84a6,6,0,0,0,0-12Zm117.91,33.91L190,134.6v9.65l43.32,22V155.45l-30.88-16,30.88-16Zm35.49-6.91-28.64,77h8.42l28.68-77Zm15.33,6.89V123.4l30.92,16-30.92,16v10.84l43.33-22.06V134.6Zm0,0V123.4l30.92,16-30.92,16v10.84l43.33-22.06V134.6Zm-44,70.09h8.42l28.68-77h-8.46ZM190,144.25l43.32,22V155.45l-30.88-16,30.88-16V112.61L190,134.6ZM115.38,78.7H80.54a6,6,0,0,0,0,12h34.84a6,6,0,0,0,0-12Zm0,19.35H80.54a6,6,0,0,0,0,12h34.84a6,6,0,0,0,0-12Zm0,19.36H80.54a6,6,0,1,0,0,12h34.84a6,6,0,0,0,0-12Zm0,19.35H80.54a6,6,0,0,0,0,12h34.84a6,6,0,0,0,0-12Zm0,19.36H80.54a6,6,0,0,0,0,12h34.84a6,6,0,0,0,0-12Zm0,19.35H80.54a6,6,0,1,0,0,12h34.84a6,6,0,1,0,0-12Zm0,19.35H80.54a6,6,0,0,0,0,12h34.84a6,6,0,0,0,0-12Zm0,19.36H80.54a6,6,0,0,0,0,12h34.84a6,6,0,0,0,0-12ZM62.54,78.7H53.83a6,6,0,0,0,0,12h8.71a6,6,0,1,0,0-12Zm0,19.35H53.83a6,6,0,0,0,0,12h8.71a6,6,0,1,0,0-12Zm0,19.36H53.83a6,6,0,0,0,0,12h8.71a6,6,0,1,0,0-12Zm0,19.35H53.83a6,6,0,1,0,0,12h8.71a6,6,0,1,0,0-12Zm0,19.36H53.83a6,6,0,1,0,0,12h8.71a6,6,0,1,0,0-12Zm0,19.35H53.83a6,6,0,0,0,0,12h8.71a6,6,0,1,0,0-12Zm0,19.35H53.83a6,6,0,1,0,0,12h8.71a6,6,0,1,0,0-12Zm0,19.36H53.83a6,6,0,1,0,0,12h8.71a6,6,0,1,0,0-12ZM284.11,112.59V123.4l30.92,16-30.92,16v10.84l43.33-22.06V134.6Zm-44,70.09h8.42l28.68-77h-8.46ZM190,144.25l43.32,22V155.45l-30.88-16,30.88-16V112.61L190,134.6ZM115.38,78.7H80.54a6,6,0,0,0,0,12h34.84a6,6,0,0,0,0-12Zm0,19.35H80.54a6,6,0,0,0,0,12h34.84a6,6,0,0,0,0-12Zm0,19.36H80.54a6,6,0,1,0,0,12h34.84a6,6,0,0,0,0-12Zm0,19.35H80.54a6,6,0,0,0,0,12h34.84a6,6,0,0,0,0-12Zm0,19.36H80.54a6,6,0,0,0,0,12h34.84a6,6,0,0,0,0-12Zm0,19.35H80.54a6,6,0,1,0,0,12h34.84a6,6,0,1,0,0-12Zm0,19.35H80.54a6,6,0,0,0,0,12h34.84a6,6,0,0,0,0-12Zm0,19.36H80.54a6,6,0,0,0,0,12h34.84a6,6,0,0,0,0-12ZM62.54,78.7H53.83a6,6,0,0,0,0,12h8.71a6,6,0,1,0,0-12Zm0,19.35H53.83a6,6,0,0,0,0,12h8.71a6,6,0,1,0,0-12Zm0,19.36H53.83a6,6,0,0,0,0,12h8.71a6,6,0,1,0,0-12Zm0,19.35H53.83a6,6,0,1,0,0,12h8.71a6,6,0,1,0,0-12Zm0,19.36H53.83a6,6,0,1,0,0,12h8.71a6,6,0,1,0,0-12Zm0,19.35H53.83a6,6,0,0,0,0,12h8.71a6,6,0,1,0,0-12Zm0,19.35H53.83a6,6,0,1,0,0,12h8.71a6,6,0,1,0,0-12Zm0,19.36H53.83a6,6,0,1,0,0,12h8.71a6,6,0,1,0,0-12Zm0,0H53.83a6,6,0,1,0,0,12h8.71a6,6,0,1,0,0-12Zm0-19.36H53.83a6,6,0,1,0,0,12h8.71a6,6,0,1,0,0-12Zm0-19.35H53.83a6,6,0,0,0,0,12h8.71a6,6,0,1,0,0-12Zm0-19.35H53.83a6,6,0,1,0,0,12h8.71a6,6,0,1,0,0-12Zm0-19.36H53.83a6,6,0,1,0,0,12h8.71a6,6,0,1,0,0-12Zm0-19.35H53.83a6,6,0,0,0,0,12h8.71a6,6,0,1,0,0-12Zm0-19.36H53.83a6,6,0,0,0,0,12h8.71a6,6,0,1,0,0-12Zm0-19.35H53.83a6,6,0,0,0,0,12h8.71a6,6,0,1,0,0-12Zm52.84,135.48H80.54a6,6,0,0,0,0,12h34.84a6,6,0,0,0,0-12Zm0-19.36H80.54a6,6,0,0,0,0,12h34.84a6,6,0,0,0,0-12Zm0-19.35H80.54a6,6,0,1,0,0,12h34.84a6,6,0,1,0,0-12Zm0-19.35H80.54a6,6,0,0,0,0,12h34.84a6,6,0,0,0,0-12Zm0-19.36H80.54a6,6,0,0,0,0,12h34.84a6,6,0,0,0,0-12Zm0-19.35H80.54a6,6,0,1,0,0,12h34.84a6,6,0,0,0,0-12Zm0-19.36H80.54a6,6,0,0,0,0,12h34.84a6,6,0,0,0,0-12Zm0-19.35H80.54a6,6,0,0,0,0,12h34.84a6,6,0,0,0,0-12Zm117.91,33.91L190,134.6v9.65l43.32,22V155.45l-30.88-16,30.88-16Zm35.49-6.91-28.64,77h8.42l28.68-77Zm15.33,6.89V123.4l30.92,16-30.92,16v10.84l43.33-22.06V134.6Zm0,0V123.4l30.92,16-30.92,16v10.84l43.33-22.06V134.6Zm-15.33-6.89-28.64,77h8.42l28.68-77Zm-35.49,6.91L190,134.6v9.65l43.32,22V155.45l-30.88-16,30.88-16ZM115.38,78.7H80.54a6,6,0,0,0,0,12h34.84a6,6,0,0,0,0-12Zm0,19.35H80.54a6,6,0,0,0,0,12h34.84a6,6,0,0,0,0-12Zm0,19.36H80.54a6,6,0,1,0,0,12h34.84a6,6,0,0,0,0-12Zm0,19.35H80.54a6,6,0,0,0,0,12h34.84a6,6,0,0,0,0-12Zm0,19.36H80.54a6,6,0,0,0,0,12h34.84a6,6,0,0,0,0-12Zm0,19.35H80.54a6,6,0,1,0,0,12h34.84a6,6,0,1,0,0-12Zm0,19.35H80.54a6,6,0,0,0,0,12h34.84a6,6,0,0,0,0-12Zm0,19.36H80.54a6,6,0,0,0,0,12h34.84a6,6,0,0,0,0-12ZM62.54,78.7H53.83a6,6,0,0,0,0,12h8.71a6,6,0,1,0,0-12Zm0,19.35H53.83a6,6,0,0,0,0,12h8.71a6,6,0,1,0,0-12Zm0,19.36H53.83a6,6,0,0,0,0,12h8.71a6,6,0,1,0,0-12Zm0,19.35H53.83a6,6,0,1,0,0,12h8.71a6,6,0,1,0,0-12Zm0,19.36H53.83a6,6,0,1,0,0,12h8.71a6,6,0,1,0,0-12Zm0,19.35H53.83a6,6,0,0,0,0,12h8.71a6,6,0,1,0,0-12Zm0,19.35H53.83a6,6,0,1,0,0,12h8.71a6,6,0,1,0,0-12Zm0,19.36H53.83a6,6,0,1,0,0,12h8.71a6,6,0,1,0,0-12Zm0,0H53.83a6,6,0,1,0,0,12h8.71a6,6,0,1,0,0-12Zm0-19.36H53.83a6,6,0,1,0,0,12h8.71a6,6,0,1,0,0-12Zm0-19.35H53.83a6,6,0,0,0,0,12h8.71a6,6,0,1,0,0-12Zm0-19.35H53.83a6,6,0,1,0,0,12h8.71a6,6,0,1,0,0-12Zm0-19.36H53.83a6,6,0,1,0,0,12h8.71a6,6,0,1,0,0-12Zm0-19.35H53.83a6,6,0,0,0,0,12h8.71a6,6,0,1,0,0-12Zm0-19.36H53.83a6,6,0,0,0,0,12h8.71a6,6,0,1,0,0-12Zm0-19.35H53.83a6,6,0,0,0,0,12h8.71a6,6,0,1,0,0-12Zm52.84,135.48H80.54a6,6,0,0,0,0,12h34.84a6,6,0,0,0,0-12Zm0-19.36H80.54a6,6,0,0,0,0,12h34.84a6,6,0,0,0,0-12Zm0-19.35H80.54a6,6,0,1,0,0,12h34.84a6,6,0,1,0,0-12Zm0-19.35H80.54a6,6,0,0,0,0,12h34.84a6,6,0,0,0,0-12Zm0-19.36H80.54a6,6,0,0,0,0,12h34.84a6,6,0,0,0,0-12Zm0-19.35H80.54a6,6,0,1,0,0,12h34.84a6,6,0,0,0,0-12Zm0-19.36H80.54a6,6,0,0,0,0,12h34.84a6,6,0,0,0,0-12Zm0-19.35H80.54a6,6,0,0,0,0,12h34.84a6,6,0,0,0,0-12Zm117.91,33.91L190,134.6v9.65l43.32,22V155.45l-30.88-16,30.88-16Zm35.49-6.91-28.64,77h8.42l28.68-77Zm15.33,6.89V123.4l30.92,16-30.92,16v10.84l43.33-22.06V134.6Zm0,0V123.4l30.92,16-30.92,16v10.84l43.33-22.06V134.6Zm-15.33-6.89-28.64,77h8.42l28.68-77Zm-35.49,6.91L190,134.6v9.65l43.32,22V155.45l-30.88-16,30.88-16ZM115.38,78.7H80.54a6,6,0,0,0,0,12h34.84a6,6,0,0,0,0-12Zm0,19.35H80.54a6,6,0,0,0,0,12h34.84a6,6,0,0,0,0-12Zm0,19.36H80.54a6,6,0,1,0,0,12h34.84a6,6,0,0,0,0-12Zm0,19.35H80.54a6,6,0,0,0,0,12h34.84a6,6,0,0,0,0-12Zm0,19.36H80.54a6,6,0,0,0,0,12h34.84a6,6,0,0,0,0-12Zm0,19.35H80.54a6,6,0,1,0,0,12h34.84a6,6,0,1,0,0-12Zm0,19.35H80.54a6,6,0,0,0,0,12h34.84a6,6,0,0,0,0-12Zm0,19.36H80.54a6,6,0,0,0,0,12h34.84a6,6,0,0,0,0-12ZM62.54,78.7H53.83a6,6,0,0,0,0,12h8.71a6,6,0,1,0,0-12Zm0,19.35H53.83a6,6,0,0,0,0,12h8.71a6,6,0,1,0,0-12Zm0,19.36H53.83a6,6,0,0,0,0,12h8.71a6,6,0,1,0,0-12Zm0,19.35H53.83a6,6,0,1,0,0,12h8.71a6,6,0,1,0,0-12Zm0,19.36H53.83a6,6,0,1,0,0,12h8.71a6,6,0,1,0,0-12Zm0,19.35H53.83a6,6,0,0,0,0,12h8.71a6,6,0,1,0,0-12Zm0,19.35H53.83a6,6,0,1,0,0,12h8.71a6,6,0,1,0,0-12Zm0,19.36H53.83a6,6,0,1,0,0,12h8.71a6,6,0,1,0,0-12Zm0,0H53.83a6,6,0,1,0,0,12h8.71a6,6,0,1,0,0-12Zm0-19.36H53.83a6,6,0,1,0,0,12h8.71a6,6,0,1,0,0-12Zm0-19.35H53.83a6,6,0,0,0,0,12h8.71a6,6,0,1,0,0-12Zm0-19.35H53.83a6,6,0,1,0,0,12h8.71a6,6,0,1,0,0-12Zm0-19.36H53.83a6,6,0,1,0,0,12h8.71a6,6,0,1,0,0-12Zm0-19.35H53.83a6,6,0,0,0,0,12h8.71a6,6,0,1,0,0-12Zm0-19.36H53.83a6,6,0,0,0,0,12h8.71a6,6,0,1,0,0-12Zm0-19.35H53.83a6,6,0,0,0,0,12h8.71a6,6,0,1,0,0-12Zm52.84,135.48H80.54a6,6,0,0,0,0,12h34.84a6,6,0,0,0,0-12Zm0-19.36H80.54a6,6,0,0,0,0,12h34.84a6,6,0,0,0,0-12Zm0-19.35H80.54a6,6,0,1,0,0,12h34.84a6,6,0,1,0,0-12Zm0-19.35H80.54a6,6,0,0,0,0,12h34.84a6,6,0,0,0,0-12Zm0-19.36H80.54a6,6,0,0,0,0,12h34.84a6,6,0,0,0,0-12Zm0-19.35H80.54a6,6,0,1,0,0,12h34.84a6,6,0,0,0,0-12Zm0-19.36H80.54a6,6,0,0,0,0,12h34.84a6,6,0,0,0,0-12Zm0-19.35H80.54a6,6,0,0,0,0,12h34.84a6,6,0,0,0,0-12Zm117.91,33.91L190,134.6v9.65l43.32,22V155.45l-30.88-16,30.88-16Zm35.49-6.91-28.64,77h8.42l28.68-77Zm15.33,6.89V123.4l30.92,16-30.92,16v10.84l43.33-22.06V134.6ZM62.54,214.18H53.83a6,6,0,1,0,0,12h8.71a6,6,0,1,0,0-12Zm0-19.36H53.83a6,6,0,1,0,0,12h8.71a6,6,0,1,0,0-12Zm0-19.35H53.83a6,6,0,0,0,0,12h8.71a6,6,0,1,0,0-12Zm0-19.35H53.83a6,6,0,1,0,0,12h8.71a6,6,0,1,0,0-12Zm0-19.36H53.83a6,6,0,1,0,0,12h8.71a6,6,0,1,0,0-12Zm0-19.35H53.83a6,6,0,0,0,0,12h8.71a6,6,0,1,0,0-12Zm0-19.36H53.83a6,6,0,0,0,0,12h8.71a6,6,0,1,0,0-12Zm0-19.35H53.83a6,6,0,0,0,0,12h8.71a6,6,0,1,0,0-12Zm52.84,135.48H80.54a6,6,0,0,0,0,12h34.84a6,6,0,0,0,0-12Zm0-19.36H80.54a6,6,0,0,0,0,12h34.84a6,6,0,0,0,0-12Zm0-19.35H80.54a6,6,0,1,0,0,12h34.84a6,6,0,1,0,0-12Zm0-19.35H80.54a6,6,0,0,0,0,12h34.84a6,6,0,0,0,0-12Zm0-19.36H80.54a6,6,0,0,0,0,12h34.84a6,6,0,0,0,0-12Zm0-19.35H80.54a6,6,0,1,0,0,12h34.84a6,6,0,0,0,0-12Zm0-19.36H80.54a6,6,0,0,0,0,12h34.84a6,6,0,0,0,0-12Zm0-19.35H80.54a6,6,0,0,0,0,12h34.84a6,6,0,0,0,0-12Zm93.67,183.42a7.35,7.35,0,1,0,7.36,7.35A7.35,7.35,0,0,0,209.05,262.12Zm24.24-149.51L190,134.6v9.65l43.32,22V155.45l-30.88-16,30.88-16Zm35.49-6.91-28.64,77h8.42l28.68-77Zm15.33,6.89V123.4l30.92,16-30.92,16v10.84l43.33-22.06V134.6Zm0,0V123.4l30.92,16-30.92,16v10.84l43.33-22.06V134.6Zm-15.33-6.89-28.64,77h8.42l28.68-77Zm-35.49,6.91L190,134.6v9.65l43.32,22V155.45l-30.88-16,30.88-16ZM115.38,78.7H80.54a6,6,0,0,0,0,12h34.84a6,6,0,0,0,0-12Zm0,19.35H80.54a6,6,0,0,0,0,12h34.84a6,6,0,0,0,0-12Zm0,19.36H80.54a6,6,0,1,0,0,12h34.84a6,6,0,0,0,0-12Zm0,19.35H80.54a6,6,0,0,0,0,12h34.84a6,6,0,0,0,0-12Zm0,19.36H80.54a6,6,0,0,0,0,12h34.84a6,6,0,0,0,0-12Zm0,19.35H80.54a6,6,0,1,0,0,12h34.84a6,6,0,1,0,0-12Zm0,19.35H80.54a6,6,0,0,0,0,12h34.84a6,6,0,0,0,0-12Zm0,19.36H80.54a6,6,0,0,0,0,12h34.84a6,6,0,0,0,0-12ZM62.54,78.7H53.83a6,6,0,0,0,0,12h8.71a6,6,0,1,0,0-12Zm0,19.35H53.83a6,6,0,0,0,0,12h8.71a6,6,0,1,0,0-12Zm0,19.36H53.83a6,6,0,0,0,0,12h8.71a6,6,0,1,0,0-12Zm0,19.35H53.83a6,6,0,1,0,0,12h8.71a6,6,0,1,0,0-12Zm0,19.36H53.83a6,6,0,1,0,0,12h8.71a6,6,0,1,0,0-12Zm0,19.35H53.83a6,6,0,0,0,0,12h8.71a6,6,0,1,0,0-12Zm0,19.35H53.83a6,6,0,1,0,0,12h8.71a6,6,0,1,0,0-12Zm0,19.36H53.83a6,6,0,1,0,0,12h8.71a6,6,0,1,0,0-12Zm0,0H53.83a6,6,0,1,0,0,12h8.71a6,6,0,1,0,0-12Zm0-19.36H53.83a6,6,0,1,0,0,12h8.71a6,6,0,1,0,0-12Zm0-19.35H53.83a6,6,0,0,0,0,12h8.71a6,6,0,1,0,0-12Zm0-19.35H53.83a6,6,0,1,0,0,12h8.71a6,6,0,1,0,0-12Zm0-19.36H53.83a6,6,0,1,0,0,12h8.71a6,6,0,1,0,0-12Zm0-19.35H53.83a6,6,0,0,0,0,12h8.71a6,6,0,1,0,0-12Zm0-19.36H53.83a6,6,0,0,0,0,12h8.71a6,6,0,1,0,0-12Zm0-19.35H53.83a6,6,0,0,0,0,12h8.71a6,6,0,1,0,0-12Zm52.84,135.48H80.54a6,6,0,0,0,0,12h34.84a6,6,0,0,0,0-12Zm0-19.36H80.54a6,6,0,0,0,0,12h34.84a6,6,0,0,0,0-12Zm0-19.35H80.54a6,6,0,1,0,0,12h34.84a6,6,0,1,0,0-12Zm0-19.35H80.54a6,6,0,0,0,0,12h34.84a6,6,0,0,0,0-12Zm0-19.36H80.54a6,6,0,0,0,0,12h34.84a6,6,0,0,0,0-12Zm0-19.35H80.54a6,6,0,1,0,0,12h34.84a6,6,0,0,0,0-12Zm0-19.36H80.54a6,6,0,0,0,0,12h34.84a6,6,0,0,0,0-12Zm0-19.35H80.54a6,6,0,0,0,0,12h34.84a6,6,0,0,0,0-12Zm117.91,33.91L190,134.6v9.65l43.32,22V155.45l-30.88-16,30.88-16Zm35.49-6.91-28.64,77h8.42l28.68-77Zm15.33,6.89V123.4l30.92,16-30.92,16v10.84l43.33-22.06V134.6Zm0,0V123.4l30.92,16-30.92,16v10.84l43.33-22.06V134.6Zm-15.33-6.89-28.64,77h8.42l28.68-77Zm-35.49,6.91L190,134.6v9.65l43.32,22V155.45l-30.88-16,30.88-16ZM115.38,78.7H80.54a6,6,0,0,0,0,12h34.84a6,6,0,0,0,0-12Zm0,19.35H80.54a6,6,0,0,0,0,12h34.84a6,6,0,0,0,0-12Zm0,19.36H80.54a6,6,0,1,0,0,12h34.84a6,6,0,0,0,0-12Zm0,19.35H80.54a6,6,0,0,0,0,12h34.84a6,6,0,0,0,0-12Zm0,19.36H80.54a6,6,0,0,0,0,12h34.84a6,6,0,0,0,0-12Zm0,19.35H80.54a6,6,0,1,0,0,12h34.84a6,6,0,1,0,0-12Zm0,19.35H80.54a6,6,0,0,0,0,12h34.84a6,6,0,0,0,0-12Zm0,19.36H80.54a6,6,0,0,0,0,12h34.84a6,6,0,0,0,0-12ZM62.54,78.7H53.83a6,6,0,0,0,0,12h8.71a6,6,0,1,0,0-12Zm0,19.35H53.83a6,6,0,0,0,0,12h8.71a6,6,0,1,0,0-12Zm0,19.36H53.83a6,6,0,0,0,0,12h8.71a6,6,0,1,0,0-12Zm0,19.35H53.83a6,6,0,1,0,0,12h8.71a6,6,0,1,0,0-12Zm0,19.36H53.83a6,6,0,1,0,0,12h8.71a6,6,0,1,0,0-12Zm0,19.35H53.83a6,6,0,0,0,0,12h8.71a6,6,0,1,0,0-12Zm0,19.35H53.83a6,6,0,1,0,0,12h8.71a6,6,0,1,0,0-12Zm0,19.36H53.83a6,6,0,1,0,0,12h8.71a6,6,0,1,0,0-12Zm0,0H53.83a6,6,0,1,0,0,12h8.71a6,6,0,1,0,0-12Zm0-19.36H53.83a6,6,0,1,0,0,12h8.71a6,6,0,1,0,0-12Zm0-19.35H53.83a6,6,0,0,0,0,12h8.71a6,6,0,1,0,0-12Zm0-19.35H53.83a6,6,0,1,0,0,12h8.71a6,6,0,1,0,0-12Zm0-19.36H53.83a6,6,0,1,0,0,12h8.71a6,6,0,1,0,0-12Zm0-19.35H53.83a6,6,0,0,0,0,12h8.71a6,6,0,1,0,0-12Zm0-19.36H53.83a6,6,0,0,0,0,12h8.71a6,6,0,1,0,0-12Zm0-19.35H53.83a6,6,0,0,0,0,12h8.71a6,6,0,1,0,0-12Zm52.84,135.48H80.54a6,6,0,0,0,0,12h34.84a6,6,0,0,0,0-12Zm0-19.36H80.54a6,6,0,0,0,0,12h34.84a6,6,0,0,0,0-12Zm0-19.35H80.54a6,6,0,1,0,0,12h34.84a6,6,0,1,0,0-12Zm0-19.35H80.54a6,6,0,0,0,0,12h34.84a6,6,0,0,0,0-12Zm0-19.36H80.54a6,6,0,0,0,0,12h34.84a6,6,0,0,0,0-12Zm0-19.35H80.54a6,6,0,1,0,0,12h34.84a6,6,0,0,0,0-12Zm0-19.36H80.54a6,6,0,0,0,0,12h34.84a6,6,0,0,0,0-12Zm0-19.35H80.54a6,6,0,0,0,0,12h34.84a6,6,0,0,0,0-12Zm117.91,33.91L190,134.6v9.65l43.32,22V155.45l-30.88-16,30.88-16Zm35.49-6.91-28.64,77h8.42l28.68-77Zm15.33,6.89V123.4l30.92,16-30.92,16v10.84l43.33-22.06V134.6Zm0,0V123.4l30.92,16-30.92,16v10.84l43.33-22.06V134.6Zm-44,70.09h8.42l28.68-77h-8.46ZM190,144.25l43.32,22V155.45l-30.88-16,30.88-16V112.61L190,134.6ZM115.38,78.7H80.54a6,6,0,0,0,0,12h34.84a6,6,0,0,0,0-12Zm0,19.35H80.54a6,6,0,0,0,0,12h34.84a6,6,0,0,0,0-12Zm0,19.36H80.54a6,6,0,1,0,0,12h34.84a6,6,0,0,0,0-12Zm0,19.35H80.54a6,6,0,0,0,0,12h34.84a6,6,0,0,0,0-12Zm0,19.36H80.54a6,6,0,0,0,0,12h34.84a6,6,0,0,0,0-12Zm0,19.35H80.54a6,6,0,1,0,0,12h34.84a6,6,0,1,0,0-12Zm0,19.35H80.54a6,6,0,0,0,0,12h34.84a6,6,0,0,0,0-12Zm0,19.36H80.54a6,6,0,0,0,0,12h34.84a6,6,0,0,0,0-12ZM62.54,78.7H53.83a6,6,0,0,0,0,12h8.71a6,6,0,1,0,0-12Zm0,19.35H53.83a6,6,0,0,0,0,12h8.71a6,6,0,1,0,0-12Zm0,19.36H53.83a6,6,0,0,0,0,12h8.71a6,6,0,1,0,0-12Zm0,19.35H53.83a6,6,0,1,0,0,12h8.71a6,6,0,1,0,0-12Zm0,19.36H53.83a6,6,0,1,0,0,12h8.71a6,6,0,1,0,0-12Zm0,19.35H53.83a6,6,0,0,0,0,12h8.71a6,6,0,1,0,0-12Zm0,19.35H53.83a6,6,0,1,0,0,12h8.71a6,6,0,1,0,0-12Zm0,19.36H53.83a6,6,0,1,0,0,12h8.71a6,6,0,1,0,0-12ZM284.11,112.59V123.4l30.92,16-30.92,16v10.84l43.33-22.06V134.6Zm-44,70.09h8.42l28.68-77h-8.46ZM190,144.25l43.32,22V155.45l-30.88-16,30.88-16V112.61L190,134.6ZM115.38,78.7H80.54a6,6,0,0,0,0,12h34.84a6,6,0,0,0,0-12Zm0,19.35H80.54a6,6,0,0,0,0,12h34.84a6,6,0,0,0,0-12Zm0,19.36H80.54a6,6,0,1,0,0,12h34.84a6,6,0,0,0,0-12Zm0,19.35H80.54a6,6,0,0,0,0,12h34.84a6,6,0,0,0,0-12Zm0,19.36H80.54a6,6,0,0,0,0,12h34.84a6,6,0,0,0,0-12Zm0,19.35H80.54a6,6,0,1,0,0,12h34.84a6,6,0,1,0,0-12Zm0,19.35H80.54a6,6,0,0,0,0,12h34.84a6,6,0,0,0,0-12Zm0,19.36H80.54a6,6,0,0,0,0,12h34.84a6,6,0,0,0,0-12ZM62.54,78.7H53.83a6,6,0,0,0,0,12h8.71a6,6,0,1,0,0-12Zm0,19.35H53.83a6,6,0,0,0,0,12h8.71a6,6,0,1,0,0-12Zm0,19.36H53.83a6,6,0,0,0,0,12h8.71a6,6,0,1,0,0-12Zm0,19.35H53.83a6,6,0,1,0,0,12h8.71a6,6,0,1,0,0-12Zm0,19.36H53.83a6,6,0,1,0,0,12h8.71a6,6,0,1,0,0-12Zm0,19.35H53.83a6,6,0,0,0,0,12h8.71a6,6,0,1,0,0-12Zm0,19.35H53.83a6,6,0,1,0,0,12h8.71a6,6,0,1,0,0-12Zm0,19.36H53.83a6,6,0,1,0,0,12h8.71a6,6,0,1,0,0-12Zm0,0H53.83a6,6,0,1,0,0,12h8.71a6,6,0,1,0,0-12Zm0-19.36H53.83a6,6,0,1,0,0,12h8.71a6,6,0,1,0,0-12Zm0-19.35H53.83a6,6,0,0,0,0,12h8.71a6,6,0,1,0,0-12Zm0-19.35H53.83a6,6,0,1,0,0,12h8.71a6,6,0,1,0,0-12Zm0-19.36H53.83a6,6,0,1,0,0,12h8.71a6,6,0,1,0,0-12Zm0-19.35H53.83a6,6,0,0,0,0,12h8.71a6,6,0,1,0,0-12Zm0-19.36H53.83a6,6,0,0,0,0,12h8.71a6,6,0,1,0,0-12Zm0-19.35H53.83a6,6,0,0,0,0,12h8.71a6,6,0,1,0,0-12Zm52.84,135.48H80.54a6,6,0,0,0,0,12h34.84a6,6,0,0,0,0-12Zm0-19.36H80.54a6,6,0,0,0,0,12h34.84a6,6,0,0,0,0-12Zm0-19.35H80.54a6,6,0,1,0,0,12h34.84a6,6,0,1,0,0-12Zm0-19.35H80.54a6,6,0,0,0,0,12h34.84a6,6,0,0,0,0-12Zm0-19.36H80.54a6,6,0,0,0,0,12h34.84a6,6,0,0,0,0-12Zm0-19.35H80.54a6,6,0,1,0,0,12h34.84a6,6,0,0,0,0-12Zm0-19.36H80.54a6,6,0,0,0,0,12h34.84a6,6,0,0,0,0-12Zm0-19.35H80.54a6,6,0,0,0,0,12h34.84a6,6,0,0,0,0-12Zm117.91,33.91L190,134.6v9.65l43.32,22V155.45l-30.88-16,30.88-16Zm35.49-6.91-28.64,77h8.42l28.68-77Zm15.33,6.89V123.4l30.92,16-30.92,16v10.84l43.33-22.06V134.6Zm0,0V123.4l30.92,16-30.92,16v10.84l43.33-22.06V134.6Zm-15.33-6.89-28.64,77h8.42l28.68-77Zm-35.49,6.91L190,134.6v9.65l43.32,22V155.45l-30.88-16,30.88-16ZM115.38,78.7H80.54a6,6,0,0,0,0,12h34.84a6,6,0,0,0,0-12Zm0,19.35H80.54a6,6,0,0,0,0,12h34.84a6,6,0,0,0,0-12Zm0,19.36H80.54a6,6,0,1,0,0,12h34.84a6,6,0,0,0,0-12Zm0,19.35H80.54a6,6,0,0,0,0,12h34.84a6,6,0,0,0,0-12Zm0,19.36H80.54a6,6,0,0,0,0,12h34.84a6,6,0,0,0,0-12Zm0,19.35H80.54a6,6,0,1,0,0,12h34.84a6,6,0,1,0,0-12Zm0,19.35H80.54a6,6,0,0,0,0,12h34.84a6,6,0,0,0,0-12Zm0,19.36H80.54a6,6,0,0,0,0,12h34.84a6,6,0,0,0,0-12ZM62.54,78.7H53.83a6,6,0,0,0,0,12h8.71a6,6,0,1,0,0-12Zm0,19.35H53.83a6,6,0,0,0,0,12h8.71a6,6,0,1,0,0-12Zm0,19.36H53.83a6,6,0,0,0,0,12h8.71a6,6,0,1,0,0-12Zm0,19.35H53.83a6,6,0,1,0,0,12h8.71a6,6,0,1,0,0-12Zm0,19.36H53.83a6,6,0,1,0,0,12h8.71a6,6,0,1,0,0-12Zm0,19.35H53.83a6,6,0,0,0,0,12h8.71a6,6,0,1,0,0-12Zm0,19.35H53.83a6,6,0,1,0,0,12h8.71a6,6,0,1,0,0-12Zm0,19.36H53.83a6,6,0,1,0,0,12h8.71a6,6,0,1,0,0-12Zm0,0H53.83a6,6,0,1,0,0,12h8.71a6,6,0,1,0,0-12Zm0-19.36H53.83a6,6,0,1,0,0,12h8.71a6,6,0,1,0,0-12Zm0-19.35H53.83a6,6,0,0,0,0,12h8.71a6,6,0,1,0,0-12Zm0-19.35H53.83a6,6,0,1,0,0,12h8.71a6,6,0,1,0,0-12Zm0-19.36H53.83a6,6,0,1,0,0,12h8.71a6,6,0,1,0,0-12Zm0-19.35H53.83a6,6,0,0,0,0,12h8.71a6,6,0,1,0,0-12Zm0-19.36H53.83a6,6,0,0,0,0,12h8.71a6,6,0,1,0,0-12Zm0-19.35H53.83a6,6,0,0,0,0,12h8.71a6,6,0,1,0,0-12Zm52.84,135.48H80.54a6,6,0,0,0,0,12h34.84a6,6,0,0,0,0-12Zm0-19.36H80.54a6,6,0,0,0,0,12h34.84a6,6,0,0,0,0-12Zm0-19.35H80.54a6,6,0,1,0,0,12h34.84a6,6,0,1,0,0-12Zm0-19.35H80.54a6,6,0,0,0,0,12h34.84a6,6,0,0,0,0-12Zm0-19.36H80.54a6,6,0,0,0,0,12h34.84a6,6,0,0,0,0-12Zm0-19.35H80.54a6,6,0,1,0,0,12h34.84a6,6,0,0,0,0-12Zm0-19.36H80.54a6,6,0,0,0,0,12h34.84a6,6,0,0,0,0-12Zm0-19.35H80.54a6,6,0,0,0,0,12h34.84a6,6,0,0,0,0-12Zm117.91,33.91L190,134.6v9.65l43.32,22V155.45l-30.88-16,30.88-16Zm35.49-6.91-28.64,77h8.42l28.68-77Zm15.33,6.89V123.4l30.92,16-30.92,16v10.84l43.33-22.06V134.6Zm0,0V123.4l30.92,16-30.92,16v10.84l43.33-22.06V134.6Zm-15.33-6.89-28.64,77h8.42l28.68-77Zm-35.49,6.91L190,134.6v9.65l43.32,22V155.45l-30.88-16,30.88-16ZM115.38,78.7H80.54a6,6,0,0,0,0,12h34.84a6,6,0,0,0,0-12Zm0,19.35H80.54a6,6,0,0,0,0,12h34.84a6,6,0,0,0,0-12Zm0,19.36H80.54a6,6,0,1,0,0,12h34.84a6,6,0,0,0,0-12Zm0,19.35H80.54a6,6,0,0,0,0,12h34.84a6,6,0,0,0,0-12Zm0,19.36H80.54a6,6,0,0,0,0,12h34.84a6,6,0,0,0,0-12Zm0,19.35H80.54a6,6,0,1,0,0,12h34.84a6,6,0,1,0,0-12Zm0,19.35H80.54a6,6,0,0,0,0,12h34.84a6,6,0,0,0,0-12Zm0,19.36H80.54a6,6,0,0,0,0,12h34.84a6,6,0,0,0,0-12ZM62.54,78.7H53.83a6,6,0,0,0,0,12h8.71a6,6,0,1,0,0-12Zm0,19.35H53.83a6,6,0,0,0,0,12h8.71a6,6,0,1,0,0-12Zm0,19.36H53.83a6,6,0,0,0,0,12h8.71a6,6,0,1,0,0-12Zm0,19.35H53.83a6,6,0,1,0,0,12h8.71a6,6,0,1,0,0-12Zm0,19.36H53.83a6,6,0,1,0,0,12h8.71a6,6,0,1,0,0-12Zm0,19.35H53.83a6,6,0,0,0,0,12h8.71a6,6,0,1,0,0-12Zm0,19.35H53.83a6,6,0,1,0,0,12h8.71a6,6,0,1,0,0-12Zm0,19.36H53.83a6,6,0,1,0,0,12h8.71a6,6,0,1,0,0-12Zm0,0H53.83a6,6,0,1,0,0,12h8.71a6,6,0,1,0,0-12Zm0-19.36H53.83a6,6,0,1,0,0,12h8.71a6,6,0,1,0,0-12Zm0-19.35H53.83a6,6,0,0,0,0,12h8.71a6,6,0,1,0,0-12Zm0-19.35H53.83a6,6,0,1,0,0,12h8.71a6,6,0,1,0,0-12Zm0-19.36H53.83a6,6,0,1,0,0,12h8.71a6,6,0,1,0,0-12Zm0-19.35H53.83a6,6,0,0,0,0,12h8.71a6,6,0,1,0,0-12Zm0-19.36H53.83a6,6,0,0,0,0,12h8.71a6,6,0,1,0,0-12Zm0-19.35H53.83a6,6,0,0,0,0,12h8.71a6,6,0,1,0,0-12Zm52.84,135.48H80.54a6,6,0,0,0,0,12h34.84a6,6,0,0,0,0-12Zm0-19.36H80.54a6,6,0,0,0,0,12h34.84a6,6,0,0,0,0-12Zm0-19.35H80.54a6,6,0,1,0,0,12h34.84a6,6,0,1,0,0-12Zm0-19.35H80.54a6,6,0,0,0,0,12h34.84a6,6,0,0,0,0-12Zm0-19.36H80.54a6,6,0,0,0,0,12h34.84a6,6,0,0,0,0-12Zm0-19.35H80.54a6,6,0,1,0,0,12h34.84a6,6,0,0,0,0-12Zm0-19.36H80.54a6,6,0,0,0,0,12h34.84a6,6,0,0,0,0-12Zm0-19.35H80.54a6,6,0,0,0,0,12h34.84a6,6,0,0,0,0-12Zm93.67,183.42a7.35,7.35,0,1,0,7.36,7.35A7.35,7.35,0,0,0,209.05,262.12Zm24.24-149.51L190,134.6v9.65l43.32,22V155.45l-30.88-16,30.88-16Zm35.49-6.91-28.64,77h8.42l28.68-77Zm15.33,6.89V123.4l30.92,16-30.92,16v10.84l43.33-22.06V134.6Zm0,0V123.4l30.92,16-30.92,16v10.84l43.33-22.06V134.6Zm-15.33-6.89-28.64,77h8.42l28.68-77Zm-35.49,6.91L190,134.6v9.65l43.32,22V155.45l-30.88-16,30.88-16ZM115.38,78.7H80.54a6,6,0,0,0,0,12h34.84a6,6,0,0,0,0-12Zm0,19.35H80.54a6,6,0,0,0,0,12h34.84a6,6,0,0,0,0-12Zm0,19.36H80.54a6,6,0,1,0,0,12h34.84a6,6,0,0,0,0-12Zm0,19.35H80.54a6,6,0,0,0,0,12h34.84a6,6,0,0,0,0-12Zm0,19.36H80.54a6,6,0,0,0,0,12h34.84a6,6,0,0,0,0-12Zm0,19.35H80.54a6,6,0,1,0,0,12h34.84a6,6,0,1,0,0-12Zm0,19.35H80.54a6,6,0,0,0,0,12h34.84a6,6,0,0,0,0-12Zm0,19.36H80.54a6,6,0,0,0,0,12h34.84a6,6,0,0,0,0-12ZM62.54,78.7H53.83a6,6,0,0,0,0,12h8.71a6,6,0,1,0,0-12Zm0,19.35H53.83a6,6,0,0,0,0,12h8.71a6,6,0,1,0,0-12Zm0,19.36H53.83a6,6,0,0,0,0,12h8.71a6,6,0,1,0,0-12Zm0,19.35H53.83a6,6,0,1,0,0,12h8.71a6,6,0,1,0,0-12Zm0,19.36H53.83a6,6,0,1,0,0,12h8.71a6,6,0,1,0,0-12Zm0,19.35H53.83a6,6,0,0,0,0,12h8.71a6,6,0,1,0,0-12Zm0,19.35H53.83a6,6,0,1,0,0,12h8.71a6,6,0,1,0,0-12Zm0,19.36H53.83a6,6,0,1,0,0,12h8.71a6,6,0,1,0,0-12Zm0,0H53.83a6,6,0,1,0,0,12h8.71a6,6,0,1,0,0-12Zm0-19.36H53.83a6,6,0,1,0,0,12h8.71a6,6,0,1,0,0-12Zm0-19.35H53.83a6,6,0,0,0,0,12h8.71a6,6,0,1,0,0-12Zm0-19.35H53.83a6,6,0,1,0,0,12h8.71a6,6,0,1,0,0-12Zm0-19.36H53.83a6,6,0,1,0,0,12h8.71a6,6,0,1,0,0-12Zm0-19.35H53.83a6,6,0,0,0,0,12h8.71a6,6,0,1,0,0-12Zm0-19.36H53.83a6,6,0,0,0,0,12h8.71a6,6,0,1,0,0-12Zm0-19.35H53.83a6,6,0,0,0,0,12h8.71a6,6,0,1,0,0-12Zm52.84,135.48H80.54a6,6,0,0,0,0,12h34.84a6,6,0,0,0,0-12Zm0-19.36H80.54a6,6,0,0,0,0,12h34.84a6,6,0,0,0,0-12Zm0-19.35H80.54a6,6,0,1,0,0,12h34.84a6,6,0,1,0,0-12Zm0-19.35H80.54a6,6,0,0,0,0,12h34.84a6,6,0,0,0,0-12Zm0-19.36H80.54a6,6,0,0,0,0,12h34.84a6,6,0,0,0,0-12Zm0-19.35H80.54a6,6,0,1,0,0,12h34.84a6,6,0,0,0,0-12Zm0-19.36H80.54a6,6,0,0,0,0,12h34.84a6,6,0,0,0,0-12Zm0-19.35H80.54a6,6,0,0,0,0,12h34.84a6,6,0,0,0,0-12Zm117.91,33.91L190,134.6v9.65l43.32,22V155.45l-30.88-16,30.88-16Zm35.49-6.91-28.64,77h8.42l28.68-77Zm15.33,6.89V123.4l30.92,16-30.92,16v10.84l43.33-22.06V134.6Zm0,0V123.4l30.92,16-30.92,16v10.84l43.33-22.06V134.6Zm-15.33-6.89-28.64,77h8.42l28.68-77Zm-35.49,6.91L190,134.6v9.65l43.32,22V155.45l-30.88-16,30.88-16ZM115.38,78.7H80.54a6,6,0,0,0,0,12h34.84a6,6,0,0,0,0-12Zm0,19.35H80.54a6,6,0,0,0,0,12h34.84a6,6,0,0,0,0-12Zm0,19.36H80.54a6,6,0,1,0,0,12h34.84a6,6,0,0,0,0-12Zm0,19.35H80.54a6,6,0,0,0,0,12h34.84a6,6,0,0,0,0-12Zm0,19.36H80.54a6,6,0,0,0,0,12h34.84a6,6,0,0,0,0-12Zm0,19.35H80.54a6,6,0,1,0,0,12h34.84a6,6,0,1,0,0-12Zm0,19.35H80.54a6,6,0,0,0,0,12h34.84a6,6,0,0,0,0-12Zm0,19.36H80.54a6,6,0,0,0,0,12h34.84a6,6,0,0,0,0-12ZM62.54,78.7H53.83a6,6,0,0,0,0,12h8.71a6,6,0,1,0,0-12Zm0,19.35H53.83a6,6,0,0,0,0,12h8.71a6,6,0,1,0,0-12Zm0,19.36H53.83a6,6,0,0,0,0,12h8.71a6,6,0,1,0,0-12Zm0,19.35H53.83a6,6,0,1,0,0,12h8.71a6,6,0,1,0,0-12Zm0,19.36H53.83a6,6,0,1,0,0,12h8.71a6,6,0,1,0,0-12Zm0,19.35H53.83a6,6,0,0,0,0,12h8.71a6,6,0,1,0,0-12Zm0,19.35H53.83a6,6,0,1,0,0,12h8.71a6,6,0,1,0,0-12Zm0,19.36H53.83a6,6,0,1,0,0,12h8.71a6,6,0,1,0,0-12Zm0,0H53.83a6,6,0,1,0,0,12h8.71a6,6,0,1,0,0-12Zm0-19.36H53.83a6,6,0,1,0,0,12h8.71a6,6,0,1,0,0-12Zm0-19.35H53.83a6,6,0,0,0,0,12h8.71a6,6,0,1,0,0-12Zm0-19.35H53.83a6,6,0,1,0,0,12h8.71a6,6,0,1,0,0-12Zm0-19.36H53.83a6,6,0,1,0,0,12h8.71a6,6,0,1,0,0-12Zm0-19.35H53.83a6,6,0,0,0,0,12h8.71a6,6,0,1,0,0-12Zm0-19.36H53.83a6,6,0,0,0,0,12h8.71a6,6,0,1,0,0-12Zm0-19.35H53.83a6,6,0,0,0,0,12h8.71a6,6,0,1,0,0-12Zm52.84,135.48H80.54a6,6,0,0,0,0,12h34.84a6,6,0,0,0,0-12Zm0-19.36H80.54a6,6,0,0,0,0,12h34.84a6,6,0,0,0,0-12Zm0-19.35H80.54a6,6,0,1,0,0,12h34.84a6,6,0,1,0,0-12Zm0-19.35H80.54a6,6,0,0,0,0,12h34.84a6,6,0,0,0,0-12Zm0-19.36H80.54a6,6,0,0,0,0,12h34.84a6,6,0,0,0,0-12Zm0-19.35H80.54a6,6,0,1,0,0,12h34.84a6,6,0,0,0,0-12Zm0-19.36H80.54a6,6,0,0,0,0,12h34.84a6,6,0,0,0,0-12Zm0-19.35H80.54a6,6,0,0,0,0,12h34.84a6,6,0,0,0,0-12Zm117.91,33.91L190,134.6v9.65l43.32,22V155.45l-30.88-16,30.88-16Zm35.49-6.91-28.64,77h8.42l28.68-77Zm15.33,6.89V123.4l30.92,16-30.92,16v10.84l43.33-22.06V134.6Zm0,0V123.4l30.92,16-30.92,16v10.84l43.33-22.06V134.6Zm-44,70.09h8.42l28.68-77h-8.46ZM190,144.25l43.32,22V155.45l-30.88-16,30.88-16V112.61L190,134.6ZM115.38,78.7H80.54a6,6,0,0,0,0,12h34.84a6,6,0,0,0,0-12Zm0,19.35H80.54a6,6,0,0,0,0,12h34.84a6,6,0,0,0,0-12Zm0,19.36H80.54a6,6,0,1,0,0,12h34.84a6,6,0,0,0,0-12Zm0,19.35H80.54a6,6,0,0,0,0,12h34.84a6,6,0,0,0,0-12Zm0,19.36H80.54a6,6,0,0,0,0,12h34.84a6,6,0,0,0,0-12Zm0,19.35H80.54a6,6,0,1,0,0,12h34.84a6,6,0,1,0,0-12Zm0,19.35H80.54a6,6,0,0,0,0,12h34.84a6,6,0,0,0,0-12Zm0,19.36H80.54a6,6,0,0,0,0,12h34.84a6,6,0,0,0,0-12ZM62.54,78.7H53.83a6,6,0,0,0,0,12h8.71a6,6,0,1,0,0-12Zm0,19.35H53.83a6,6,0,0,0,0,12h8.71a6,6,0,1,0,0-12Zm0,19.36H53.83a6,6,0,0,0,0,12h8.71a6,6,0,1,0,0-12Zm0,19.35H53.83a6,6,0,1,0,0,12h8.71a6,6,0,1,0,0-12Zm0,19.36H53.83a6,6,0,1,0,0,12h8.71a6,6,0,1,0,0-12Zm0,19.35H53.83a6,6,0,0,0,0,12h8.71a6,6,0,1,0,0-12Zm0,19.35H53.83a6,6,0,1,0,0,12h8.71a6,6,0,1,0,0-12Zm0,19.36H53.83a6,6,0,1,0,0,12h8.71a6,6,0,1,0,0-12ZM284.11,112.59V123.4l30.92,16-30.92,16v10.84l43.33-22.06V134.6Zm-44,70.09h8.42l28.68-77h-8.46ZM190,144.25l43.32,22V155.45l-30.88-16,30.88-16V112.61L190,134.6ZM115.38,78.7H80.54a6,6,0,0,0,0,12h34.84a6,6,0,0,0,0-12Zm0,19.35H80.54a6,6,0,0,0,0,12h34.84a6,6,0,0,0,0-12Zm0,19.36H80.54a6,6,0,1,0,0,12h34.84a6,6,0,0,0,0-12Zm0,19.35H80.54a6,6,0,0,0,0,12h34.84a6,6,0,0,0,0-12Zm0,19.36H80.54a6,6,0,0,0,0,12h34.84a6,6,0,0,0,0-12Zm0,19.35H80.54a6,6,0,1,0,0,12h34.84a6,6,0,1,0,0-12Zm0,19.35H80.54a6,6,0,0,0,0,12h34.84a6,6,0,0,0,0-12Zm0,19.36H80.54a6,6,0,0,0,0,12h34.84a6,6,0,0,0,0-12ZM62.54,78.7H53.83a6,6,0,0,0,0,12h8.71a6,6,0,1,0,0-12Zm0,19.35H53.83a6,6,0,0,0,0,12h8.71a6,6,0,1,0,0-12Zm0,19.36H53.83a6,6,0,0,0,0,12h8.71a6,6,0,1,0,0-12Zm0,19.35H53.83a6,6,0,1,0,0,12h8.71a6,6,0,1,0,0-12Zm0,19.36H53.83a6,6,0,1,0,0,12h8.71a6,6,0,1,0,0-12Zm0,19.35H53.83a6,6,0,0,0,0,12h8.71a6,6,0,1,0,0-12Zm0,19.35H53.83a6,6,0,1,0,0,12h8.71a6,6,0,1,0,0-12Zm0,19.36H53.83a6,6,0,1,0,0,12h8.71a6,6,0,1,0,0-12Zm0,0H53.83a6,6,0,1,0,0,12h8.71a6,6,0,1,0,0-12Zm0-19.36H53.83a6,6,0,1,0,0,12h8.71a6,6,0,1,0,0-12Zm0-19.35H53.83a6,6,0,0,0,0,12h8.71a6,6,0,1,0,0-12Zm0-19.35H53.83a6,6,0,1,0,0,12h8.71a6,6,0,1,0,0-12Zm0-19.36H53.83a6,6,0,1,0,0,12h8.71a6,6,0,1,0,0-12Zm0-19.35H53.83a6,6,0,0,0,0,12h8.71a6,6,0,1,0,0-12Zm0-19.36H53.83a6,6,0,0,0,0,12h8.71a6,6,0,1,0,0-12Zm0-19.35H53.83a6,6,0,0,0,0,12h8.71a6,6,0,1,0,0-12Zm52.84,135.48H80.54a6,6,0,0,0,0,12h34.84a6,6,0,0,0,0-12Zm0-19.36H80.54a6,6,0,0,0,0,12h34.84a6,6,0,0,0,0-12Zm0-19.35H80.54a6,6,0,1,0,0,12h34.84a6,6,0,1,0,0-12Zm0-19.35H80.54a6,6,0,0,0,0,12h34.84a6,6,0,0,0,0-12Zm0-19.36H80.54a6,6,0,0,0,0,12h34.84a6,6,0,0,0,0-12Zm0-19.35H80.54a6,6,0,1,0,0,12h34.84a6,6,0,0,0,0-12Zm0-19.36H80.54a6,6,0,0,0,0,12h34.84a6,6,0,0,0,0-12Zm0-19.35H80.54a6,6,0,0,0,0,12h34.84a6,6,0,0,0,0-12Zm117.91,33.91L190,134.6v9.65l43.32,22V155.45l-30.88-16,30.88-16Zm35.49-6.91-28.64,77h8.42l28.68-77Zm15.33,6.89V123.4l30.92,16-30.92,16v10.84l43.33-22.06V134.6Zm0,0V123.4l30.92,16-30.92,16v10.84l43.33-22.06V134.6Zm-15.33-6.89-28.64,77h8.42l28.68-77Zm-35.49,6.91L190,134.6v9.65l43.32,22V155.45l-30.88-16,30.88-16ZM115.38,78.7H80.54a6,6,0,0,0,0,12h34.84a6,6,0,0,0,0-12Zm0,19.35H80.54a6,6,0,0,0,0,12h34.84a6,6,0,0,0,0-12Zm0,19.36H80.54a6,6,0,1,0,0,12h34.84a6,6,0,0,0,0-12Zm0,19.35H80.54a6,6,0,0,0,0,12h34.84a6,6,0,0,0,0-12Zm0,19.36H80.54a6,6,0,0,0,0,12h34.84a6,6,0,0,0,0-12Zm0,19.35H80.54a6,6,0,1,0,0,12h34.84a6,6,0,1,0,0-12Zm0,19.35H80.54a6,6,0,0,0,0,12h34.84a6,6,0,0,0,0-12Zm0,19.36H80.54a6,6,0,0,0,0,12h34.84a6,6,0,0,0,0-12ZM62.54,78.7H53.83a6,6,0,0,0,0,12h8.71a6,6,0,1,0,0-12Zm0,19.35H53.83a6,6,0,0,0,0,12h8.71a6,6,0,1,0,0-12Zm0,19.36H53.83a6,6,0,0,0,0,12h8.71a6,6,0,1,0,0-12Zm0,19.35H53.83a6,6,0,1,0,0,12h8.71a6,6,0,1,0,0-12Zm0,19.36H53.83a6,6,0,1,0,0,12h8.71a6,6,0,1,0,0-12Zm0,19.35H53.83a6,6,0,0,0,0,12h8.71a6,6,0,1,0,0-12Zm0,19.35H53.83a6,6,0,1,0,0,12h8.71a6,6,0,1,0,0-12Zm0,19.36H53.83a6,6,0,1,0,0,12h8.71a6,6,0,1,0,0-12Zm0,0H53.83a6,6,0,1,0,0,12h8.71a6,6,0,1,0,0-12Zm0-19.36H53.83a6,6,0,1,0,0,12h8.71a6,6,0,1,0,0-12Zm0-19.35H53.83a6,6,0,0,0,0,12h8.71a6,6,0,1,0,0-12Zm0-19.35H53.83a6,6,0,1,0,0,12h8.71a6,6,0,1,0,0-12Zm0-19.36H53.83a6,6,0,1,0,0,12h8.71a6,6,0,1,0,0-12Zm0-19.35H53.83a6,6,0,0,0,0,12h8.71a6,6,0,1,0,0-12Zm0-19.36H53.83a6,6,0,0,0,0,12h8.71a6,6,0,1,0,0-12Zm0-19.35H53.83a6,6,0,0,0,0,12h8.71a6,6,0,1,0,0-12Zm52.84,135.48H80.54a6,6,0,0,0,0,12h34.84a6,6,0,0,0,0-12Zm0-19.36H80.54a6,6,0,0,0,0,12h34.84a6,6,0,0,0,0-12Zm0-19.35H80.54a6,6,0,1,0,0,12h34.84a6,6,0,1,0,0-12Zm0-19.35H80.54a6,6,0,0,0,0,12h34.84a6,6,0,0,0,0-12Zm0-19.36H80.54a6,6,0,0,0,0,12h34.84a6,6,0,0,0,0-12Zm0-19.35H80.54a6,6,0,1,0,0,12h34.84a6,6,0,0,0,0-12Zm0-19.36H80.54a6,6,0,0,0,0,12h34.84a6,6,0,0,0,0-12Zm0-19.35H80.54a6,6,0,0,0,0,12h34.84a6,6,0,0,0,0-12Zm117.91,33.91L190,134.6v9.65l43.32,22V155.45l-30.88-16,30.88-16Zm35.49-6.91-28.64,77h8.42l28.68-77Zm15.33,6.89V123.4l30.92,16-30.92,16v10.84l43.33-22.06V134.6Zm0,0V123.4l30.92,16-30.92,16v10.84l43.33-22.06V134.6Zm-15.33-6.89-28.64,77h8.42l28.68-77Zm-35.49,6.91L190,134.6v9.65l43.32,22V155.45l-30.88-16,30.88-16ZM115.38,78.7H80.54a6,6,0,0,0,0,12h34.84a6,6,0,0,0,0-12Zm0,19.35H80.54a6,6,0,0,0,0,12h34.84a6,6,0,0,0,0-12Zm0,19.36H80.54a6,6,0,1,0,0,12h34.84a6,6,0,0,0,0-12Zm0,19.35H80.54a6,6,0,0,0,0,12h34.84a6,6,0,0,0,0-12Zm0,19.36H80.54a6,6,0,0,0,0,12h34.84a6,6,0,0,0,0-12Zm0,19.35H80.54a6,6,0,1,0,0,12h34.84a6,6,0,1,0,0-12Zm0,19.35H80.54a6,6,0,0,0,0,12h34.84a6,6,0,0,0,0-12Zm0,19.36H80.54a6,6,0,0,0,0,12h34.84a6,6,0,0,0,0-12ZM62.54,78.7H53.83a6,6,0,0,0,0,12h8.71a6,6,0,1,0,0-12Zm0,19.35H53.83a6,6,0,0,0,0,12h8.71a6,6,0,1,0,0-12Zm0,19.36H53.83a6,6,0,0,0,0,12h8.71a6,6,0,1,0,0-12Zm0,19.35H53.83a6,6,0,1,0,0,12h8.71a6,6,0,1,0,0-12Zm0,19.36H53.83a6,6,0,1,0,0,12h8.71a6,6,0,1,0,0-12Zm0,19.35H53.83a6,6,0,0,0,0,12h8.71a6,6,0,1,0,0-12Zm0,19.35H53.83a6,6,0,1,0,0,12h8.71a6,6,0,1,0,0-12Zm0,19.36H53.83a6,6,0,1,0,0,12h8.71a6,6,0,1,0,0-12Zm146.51,47.94a7.35,7.35,0,1,0,7.36,7.35A7.35,7.35,0,0,0,209.05,262.12ZM62.54,78.7H53.83a6,6,0,0,0,0,12h8.71a6,6,0,1,0,0-12Zm52.84,0H80.54a6,6,0,0,0,0,12h34.84a6,6,0,0,0,0-12ZM62.54,98.05H53.83a6,6,0,0,0,0,12h8.71a6,6,0,1,0,0-12Zm52.84,0H80.54a6,6,0,0,0,0,12h34.84a6,6,0,0,0,0-12ZM62.54,117.41H53.83a6,6,0,0,0,0,12h8.71a6,6,0,1,0,0-12Zm52.84,0H80.54a6,6,0,1,0,0,12h34.84a6,6,0,0,0,0-12ZM62.54,136.76H53.83a6,6,0,1,0,0,12h8.71a6,6,0,1,0,0-12Zm52.84,0H80.54a6,6,0,0,0,0,12h34.84a6,6,0,0,0,0-12ZM62.54,156.12H53.83a6,6,0,1,0,0,12h8.71a6,6,0,1,0,0-12Zm52.84,0H80.54a6,6,0,0,0,0,12h34.84a6,6,0,0,0,0-12ZM62.54,175.47H53.83a6,6,0,0,0,0,12h8.71a6,6,0,1,0,0-12Zm52.84,0H80.54a6,6,0,1,0,0,12h34.84a6,6,0,1,0,0-12ZM62.54,194.82H53.83a6,6,0,1,0,0,12h8.71a6,6,0,1,0,0-12Zm52.84,0H80.54a6,6,0,0,0,0,12h34.84a6,6,0,0,0,0-12ZM62.54,214.18H53.83a6,6,0,1,0,0,12h8.71a6,6,0,1,0,0-12Zm52.84,0H80.54a6,6,0,0,0,0,12h34.84a6,6,0,0,0,0-12ZM233.29,112.61,190,134.6v9.65l43.32,22V155.45l-30.88-16,30.88-16Zm35.49-6.91-28.64,77h8.42l28.68-77Zm15.33,6.89V123.4l30.92,16-30.92,16v10.84l43.33-22.06V134.6Z"/><path class="cls-2" d="M370.86,25.79H47.25A16.86,16.86,0,0,0,30.41,42.63V232.31a16.86,16.86,0,0,0,16.84,16.84H370.86a16.86,16.86,0,0,0,16.84-16.84V42.63A16.86,16.86,0,0,0,370.86,25.79ZM42.41,232.31V42.63a4.84,4.84,0,0,1,4.84-4.84h79.16V237.15H47.25A4.84,4.84,0,0,1,42.41,232.31Zm333.29,0a4.84,4.84,0,0,1-4.84,4.84H138.41V37.79H370.86a4.84,4.84,0,0,1,4.84,4.84Z"/><path class="cls-3" d="M383.82,0H33.33A33.37,33.37,0,0,0,0,33.33V268.46a33.37,33.37,0,0,0,33.33,33.33h122.5v45.29H143.25a6,6,0,0,0,0,12H274.86a6,6,0,0,0,0-12H263.05V301.79H383.82a33.37,33.37,0,0,0,33.33-33.33V33.33A33.37,33.37,0,0,0,383.82,0ZM186,347.08H167.83V301.79H186Zm34.84,0H198V301.79h22.84Zm30.19,0H232.86V301.79h18.19Zm154.1-78.62a21.36,21.36,0,0,1-21.33,21.33H33.33A21.36,21.36,0,0,1,12,268.46V33.33A21.36,21.36,0,0,1,33.33,12H383.82a21.36,21.36,0,0,1,21.33,21.33Z"/></g></g></svg>