<svg xmlns="http://www.w3.org/2000/svg" xmlns:xlink="http://www.w3.org/1999/xlink" viewBox="0 0 349.34 354.17"><defs><style>.cls-1{fill:url(#linear-gradient);}</style><linearGradient id="linear-gradient" x1="51.2" y1="55.53" x2="295.01" y2="299.34" gradientUnits="userSpaceOnUse"><stop offset="0" stop-color="#9e258f"/><stop offset="1" stop-color="#ff6700"/></linearGradient></defs><g id="Layer_2" data-name="Layer 2"><g id="Layer_1-2" data-name="Layer 1"><path class="cls-1" d="M195.16,204.77H150.59a5.41,5.41,0,0,1-5.41-5.4V154.8a5.41,5.41,0,0,1,5.41-5.4h44.57a5.4,5.4,0,0,1,5.4,5.4v44.57A5.4,5.4,0,0,1,195.16,204.77Zm-42-8h39.38V157.4H153.18Zm111.9,77.93H80.66a5.4,5.4,0,0,1-5.4-5.4V84.88a5.41,5.41,0,0,1,5.4-5.41H265.08a5.42,5.42,0,0,1,5.41,5.41V269.3A5.41,5.41,0,0,1,265.08,274.7Zm-181.82-8H262.49V87.47H83.26Zm16.27-174H91.27v8.26h8.26Zm0,20H91.27v8.25h8.26Zm0,20H91.27v8.26h8.26Zm0,20H91.27v8.26h8.26Zm0,20H91.27v8.25h8.26Zm0,20H91.27v8.26h8.26Zm0,20H91.27v8.26h8.26Zm0,20H91.27v8.25h8.26Zm0,20H91.27v8.26h8.26ZM118.87,92.68h-8.26v8.26h8.26Zm0,20h-8.26v8.25h8.26Zm0,20h-8.26v8.26h8.26Zm0,20h-8.26v8.26h8.26Zm0,20h-8.26v8.25h8.26Zm0,20h-8.26v8.26h8.26Zm0,20h-8.26v8.26h8.26Zm0,20h-8.26v8.25h8.26Zm0,20h-8.26v8.26h8.26ZM138.21,92.68H130v8.26h8.26Zm0,20H130v8.25h8.26Zm0,20H130v8.26h8.26Zm0,20H130v8.26h8.26Zm0,20H130v8.25h8.26Zm0,20H130v8.26h8.26Zm0,20H130v8.26h8.26Zm0,20H130v8.25h8.26Zm0,20H130v8.26h8.26ZM157.55,92.68h-8.26v8.26h8.26Zm0,20h-8.26v8.25h8.26Zm0,20h-8.26v8.26h8.26Zm0,80h-8.26v8.26h8.26Zm0,20h-8.26v8.25h8.26Zm0,20h-8.26v8.26h8.26ZM176.89,92.68h-8.26v8.26h8.26Zm0,20h-8.26v8.25h8.26Zm0,20h-8.26v8.26h8.26Zm0,80h-8.26v8.26h8.26Zm0,20h-8.26v8.25h8.26Zm0,20h-8.26v8.26h8.26ZM196.23,92.68H188v8.26h8.25Zm0,20H188v8.25h8.25Zm0,20H188v8.26h8.25Zm0,80H188v8.26h8.25Zm0,20H188v8.25h8.25Zm0,20H188v8.26h8.25ZM215.57,92.68h-8.25v8.26h8.25Zm0,20h-8.25v8.25h8.25Zm0,20h-8.25v8.26h8.25Zm0,20h-8.25v8.26h8.25Zm0,20h-8.25v8.25h8.25Zm0,20h-8.25v8.26h8.25Zm0,20h-8.25v8.26h8.25Zm0,20h-8.25v8.25h8.25Zm0,20h-8.25v8.26h8.25ZM234.92,92.68h-8.26v8.26h8.26Zm0,20h-8.26v8.25h8.26Zm0,20h-8.26v8.26h8.26Zm0,20h-8.26v8.26h8.26Zm0,20h-8.26v8.25h8.26Zm0,20h-8.26v8.26h8.26Zm0,20h-8.26v8.26h8.26Zm0,20h-8.26v8.25h8.26Zm0,20h-8.26v8.26h8.26ZM254.26,92.68H246v8.26h8.26Zm0,20H246v8.25h8.26Zm0,20H246v8.26h8.26Zm0,20H246v8.26h8.26Zm0,20H246v8.25h8.26Zm0,20H246v8.26h8.26Zm0,20H246v8.26h8.26Zm0,20H246v8.25h8.26Zm0,20H246v8.26h8.26ZM95.4,334.84a19.34,19.34,0,0,0,38.67,0c0-9.25-5.34-17-14-18.91h0v-21.2a5.32,5.32,0,0,0-10.64,0v21.2h0C100.75,317.84,95.4,325.59,95.4,334.84Zm19.34-9.68a9.67,9.67,0,1,1-9.68,9.68A9.68,9.68,0,0,1,114.74,325.16Zm38.69,9.68a19.34,19.34,0,0,0,38.67,0c0-9.25-5.35-17-14-18.91h0v-21.2a5.33,5.33,0,0,0-10.65,0v21.2h0C158.77,317.84,153.43,325.59,153.43,334.84Zm19.33-9.68a9.67,9.67,0,1,1-9.68,9.68A9.68,9.68,0,0,1,172.76,325.16Zm38.69,9.68a19.34,19.34,0,0,0,38.67,0c0-9.25-5.34-17-14-18.91h0v-21.2a5.32,5.32,0,0,0-10.64,0v21.2h0C216.8,317.84,211.45,325.59,211.45,334.84Zm19.34-9.68a9.67,9.67,0,1,1-9.68,9.68A9.68,9.68,0,0,1,230.79,325.16ZM250.12,19.33a19.34,19.34,0,0,0-38.67,0c0,9.26,5.35,17,14,18.91h0v21.2a5.33,5.33,0,0,0,10.65,0V38.24h0C244.78,36.33,250.12,28.59,250.12,19.33ZM230.79,29a9.67,9.67,0,1,1,9.68-9.68A9.68,9.68,0,0,1,230.79,29ZM192.1,19.33a19.34,19.34,0,0,0-38.67,0c0,9.26,5.34,17,14,18.91h0v21.2a5.33,5.33,0,0,0,10.65,0V38.24h0C186.75,36.33,192.1,28.59,192.1,19.33ZM172.76,29a9.67,9.67,0,1,1,9.68-9.68A9.68,9.68,0,0,1,172.76,29Zm-38.69-9.68a19.34,19.34,0,0,0-38.67,0c0,9.26,5.35,17,14,18.91h0v21.2a5.32,5.32,0,0,0,10.64,0V38.24h0C128.73,36.33,134.07,28.59,134.07,19.33ZM114.74,29a9.67,9.67,0,1,1,9.68-9.68A9.68,9.68,0,0,1,114.74,29ZM330,256.34a19.34,19.34,0,1,0,0-38.67c-9.25,0-17,5.35-18.91,14h-21.2a5.33,5.33,0,0,0,0,10.65h21.2C313,251,320.75,256.34,330,256.34ZM320.32,237a9.67,9.67,0,1,1,9.68,9.68A9.68,9.68,0,0,1,320.32,237ZM330,198.32a19.34,19.34,0,1,0,0-38.67c-9.25,0-17,5.34-18.91,14h-21.2a5.32,5.32,0,1,0,0,10.64h21.2C313,193,320.75,198.32,330,198.32ZM320.32,179a9.67,9.67,0,1,1,9.68,9.68A9.69,9.69,0,0,1,320.32,179ZM330,140.29a19.34,19.34,0,1,0,0-38.67c-9.25,0-17,5.35-18.91,14h-21.2a5.32,5.32,0,1,0,0,10.64h21.2C313,135,320.75,140.29,330,140.29ZM320.32,121a9.67,9.67,0,1,1,9.68,9.68A9.68,9.68,0,0,1,320.32,121Zm-301-19.34a19.34,19.34,0,0,0,0,38.67c9.26,0,17-5.34,18.91-14h21.2a5.32,5.32,0,1,0,0-10.64H38.24C36.33,107,28.59,101.62,19.33,101.62ZM29,121a9.67,9.67,0,1,1-9.68-9.68A9.68,9.68,0,0,1,29,121Zm-9.68,38.69a19.34,19.34,0,0,0,0,38.67c9.26,0,17-5.35,18.91-14h21.2a5.32,5.32,0,1,0,0-10.64H38.24C36.33,165,28.59,159.65,19.33,159.65ZM29,179a9.67,9.67,0,1,1-9.68-9.68A9.68,9.68,0,0,1,29,179Zm-9.68,38.69a19.34,19.34,0,0,0,0,38.67c9.26,0,17-5.34,18.91-14h21.2a5.33,5.33,0,0,0,0-10.65H38.24C36.33,223,28.59,217.67,19.33,217.67ZM29,237a9.67,9.67,0,1,1-9.68-9.68A9.68,9.68,0,0,1,29,237Z"/></g></g></svg>